<svg width="70" height="71" viewBox="0 0 70 71" fill="none" xmlns="http://www.w3.org/2000/svg">
<path d="M4.49523 1.61962C4.5613 0.793832 3.94542 0.0708418 3.11963 0.00477731C2.29384 -0.0612872 1.57085 0.554591 1.50479 1.38038L4.49523 1.61962ZM1.99999 14L0.504747 13.8804L0.504189 13.8878L1.99999 14ZM19.5 45L19.8764 43.548L19.5 45ZM28 29L28.3436 27.5399L28 29ZM27 49.5L25.9765 50.5966L27 49.5ZM68.9945 61.6229C69.6147 61.0736 69.6721 60.1256 69.1229 59.5054L60.1719 49.3995C59.6226 48.7794 58.6746 48.7219 58.0544 49.2712C57.4343 49.8205 57.3768 50.7685 57.9261 51.3886L65.8825 60.3717L56.8995 68.3281C56.2793 68.8774 56.2219 69.8254 56.7712 70.4455C57.3204 71.0657 58.2684 71.1231 58.8886 70.5739L68.9945 61.6229ZM1.50479 1.38038L0.504766 13.8804L3.49521 14.1196L4.49523 1.61962L1.50479 1.38038ZM0.504189 13.8878C-0.253137 23.9856 0.722036 31.2421 3.83728 36.4568C6.9947 41.742 12.1761 44.6508 19.1235 46.452L19.8764 43.548C13.3239 41.8492 9.00528 39.258 6.41271 34.9182C3.77795 30.5079 2.75313 24.0144 3.49579 14.1122L0.504189 13.8878ZM19.1235 46.452C22.6269 47.3603 25.6716 46.8565 28.0855 45.4548C30.472 44.0691 32.1428 41.865 33.0548 39.5164C33.962 37.18 34.1634 34.5819 33.4576 32.3502C32.7344 30.0635 31.0468 28.1759 28.3436 27.5399L27.6565 30.4601C29.2032 30.8241 30.1511 31.8443 30.5973 33.2549C31.0608 34.7205 30.9655 36.609 30.2582 38.4305C29.5557 40.2397 28.2942 41.8645 26.5791 42.8604C24.8914 43.8404 22.6651 44.271 19.8764 43.548L19.1235 46.452ZM28.3436 27.5399C25.2953 26.8226 22.7529 27.2629 20.9904 28.8842C19.2786 30.459 18.6399 32.8461 18.6681 35.2984C18.7245 40.2004 21.4253 46.3487 25.9765 50.5966L28.0235 48.4034C24.0033 44.6513 21.7138 39.2578 21.6679 35.2639C21.6449 33.2682 22.1771 31.8688 23.0215 31.0921C23.8152 30.3619 25.2144 29.8855 27.6565 30.4601L28.3436 27.5399ZM25.9765 50.5966C30.0165 54.3672 36.4534 56.9413 43.773 58.7081C51.1398 60.4863 59.6101 61.4943 67.9092 61.9973L68.0907 59.0027C59.8898 58.5057 51.6102 57.5137 44.4769 55.7919C37.2966 54.0587 31.4835 51.6328 28.0235 48.4034L25.9765 50.5966Z" fill="#28414C"/>
</svg>
