<svg width="54" height="54" viewBox="0 0 54 54" fill="none" xmlns="http://www.w3.org/2000/svg">
<path d="M31.6286 26.2285C31.6286 28.7847 29.5562 30.8571 27 30.8571C24.4438 30.8571 22.3714 28.7847 22.3714 26.2285C22.3714 23.6724 24.4438 21.6 27 21.6C29.5562 21.6 31.6286 23.6724 31.6286 26.2285Z" fill="#436E7F"/>
<path d="M27 45.2612C30.8736 49.2981 34.6916 51.6857 37.7691 51.6857C38.7777 51.6857 39.7327 51.458 40.5268 50.9473C43.2846 49.2406 44.2932 44.976 43.3382 38.892C43.1794 37.8109 42.9669 36.732 42.7008 35.5935C43.761 35.253 44.716 34.9104 45.671 34.5699C51.0298 32.3525 54 29.2817 54 25.928C54 22.5167 51.0298 19.446 45.671 17.2861C44.716 16.8881 43.761 16.5477 42.7008 16.2625C42.9669 15.1261 43.1794 14.0451 43.3382 12.964C44.2396 6.76718 43.233 2.44512 40.4732 0.738399C39.677 0.22771 38.722 0 37.7154 0C34.6916 0 30.818 2.38764 26.9464 6.42451C23.1264 2.38764 19.3063 0 16.2309 0C15.2223 0 14.2673 0.22771 13.4732 0.738399C10.7154 2.44512 9.7068 6.7097 10.6618 12.7938C10.8206 13.8748 11.0331 14.9537 11.2992 16.0922C10.239 16.4327 9.28396 16.7754 8.32895 17.1158C2.97021 19.3332 0 22.404 0 25.7577C0 29.169 2.97021 32.2397 8.32895 34.3997C9.28396 34.7976 10.239 35.1381 11.2992 35.4233C11.0331 36.5596 10.8206 37.6407 10.6618 38.7217C9.76043 44.8058 10.767 49.1278 13.4732 50.7771C14.2694 51.29 15.2244 51.5155 16.2309 51.5155C19.3084 51.6282 23.1284 49.2406 27 45.2612ZM24.0277 37.5854C24.9827 37.6429 25.9914 37.6429 26.9979 37.6429C28.0045 37.6429 29.0131 37.6429 29.9681 37.5854C29.0131 38.9494 28.0045 40.2007 26.9979 41.3946C25.9893 40.2007 24.9827 38.9494 24.0277 37.5854ZM17.45 31.7291C17.9801 32.6952 18.4586 33.606 19.0423 34.5146C17.3984 34.2869 15.8597 34.0017 14.3746 33.6613C14.8531 32.127 15.3832 30.533 16.0185 28.9413C16.4434 29.8499 16.9199 30.8182 17.45 31.7268V31.7291ZM14.3725 18.0245C15.8576 17.684 17.3963 17.3988 19.0403 17.1711C18.5102 18.0819 17.9801 18.9906 17.4479 19.9567C16.9157 20.9228 16.4393 21.8336 16.0164 22.7997C15.3275 21.1505 14.7953 19.5587 14.3725 18.0222V18.0245ZM17.2911 25.8152C17.9801 24.2809 18.7226 22.7445 19.5724 21.2102C20.3686 19.7312 21.27 18.2544 22.1714 16.7754C23.7637 16.6626 25.354 16.6051 27 16.6051C28.6976 16.6051 30.2899 16.6626 31.8286 16.7754C32.7837 18.2544 33.6314 19.7312 34.4276 21.2102C35.2774 22.7445 36.0199 24.2809 36.7089 25.8152C36.0199 27.3495 35.2774 28.886 34.4276 30.4203C33.6314 31.8993 32.73 33.3761 31.8286 34.8551C30.2363 34.9678 28.646 35.0253 27 35.0253C25.3024 35.0253 23.7101 34.9678 22.1714 34.8551C21.2164 33.3761 20.3686 31.8993 19.5724 30.4203C18.7226 28.8838 17.9801 27.3495 17.2911 25.8152ZM38.0351 22.7445L36.6037 19.9014C36.0736 18.9353 35.595 18.0245 35.0113 17.1158C36.6552 17.3435 38.194 17.6287 39.6791 17.9692C39.2026 19.5609 38.6704 21.1527 38.0351 22.7467V22.7445ZM38.0351 28.886C38.6725 30.4777 39.2026 32.0695 39.6791 33.606C38.194 33.9465 36.6552 34.2316 35.0113 34.4594C35.5414 33.5485 36.0715 32.6399 36.6037 31.6738C37.0822 30.8204 37.5587 29.8543 38.0351 28.8882V28.886ZM39.2542 48.6172C38.8293 48.9024 38.2992 49.0151 37.7154 49.0151C35.1165 49.0151 31.8802 46.7402 28.6976 43.329C30.2363 41.567 31.7214 39.5751 33.2065 37.3577C35.7002 37.13 38.0867 36.732 40.3164 36.1639C40.5825 37.1875 40.7413 38.211 40.9002 39.2346C41.6427 44.0674 41.059 47.5361 39.2562 48.6172H39.2542ZM42.014 18.6501C47.9565 20.4696 51.5104 23.2551 51.5104 25.8152C51.5104 28.0326 49.0703 30.25 44.7738 32.0142C43.924 32.3547 42.971 32.6974 42.016 32.9804C41.3271 30.648 40.4773 28.2603 39.4171 25.8152C40.4773 23.3701 41.3807 20.9825 42.016 18.6501H42.014ZM37.7691 2.61535C38.3528 2.61535 38.8293 2.7281 39.3078 3.01329C41.059 4.09436 41.6943 7.50558 40.9517 12.3958C40.7929 13.3619 40.5804 14.3855 40.368 15.4666C38.1403 14.9537 35.7518 14.5557 33.2581 14.2728C31.8266 12.0554 30.2879 10.0657 28.7491 8.30146C31.9318 4.9455 35.1681 2.61535 37.767 2.61535H37.7691ZM29.9702 14.0451C29.0152 13.9876 28.0066 13.9876 27 13.9876C25.9934 13.9876 24.9848 13.9876 24.0298 14.0451C24.9848 12.681 25.9934 11.4297 27 10.2359C28.0086 11.4297 29.0152 12.7385 29.9702 14.0451ZM14.7438 3.01329C15.1687 2.7281 15.6988 2.61535 16.2825 2.61535C18.8814 2.61535 22.1177 4.89023 25.3004 8.30146C23.7617 10.0634 22.2765 12.0531 20.7914 14.2728C18.2977 14.5005 15.9112 14.8984 13.6815 15.4666C13.4154 14.443 13.2566 13.4194 13.0978 12.3958C12.3552 7.56306 12.939 4.15184 14.7417 3.01329H14.7438ZM11.986 32.9804C6.04354 31.1609 2.48961 28.3753 2.48961 25.8152C2.48961 23.5978 4.92972 21.3804 9.2262 19.6184C10.076 19.278 11.029 18.9353 11.984 18.6523C12.6729 20.9847 13.5227 23.3723 14.5829 25.8174C13.5227 28.2626 12.6193 30.7077 11.984 32.9826L11.986 32.9804ZM13.0998 39.2346C13.2587 38.2685 13.4711 37.2449 13.6836 36.1639C15.9112 36.6768 18.2998 37.0747 20.7935 37.3577C22.225 39.5751 23.7637 41.5648 25.3024 43.329C22.1198 46.6827 18.8835 49.0151 16.2846 49.0151C15.7008 49.0151 15.2244 48.9024 14.7458 48.6172C12.941 47.5361 12.3594 44.0674 13.1019 39.2346H13.0998Z" fill="#436E7F"/>
</svg>
