<svg width="140" height="140" viewBox="0 0 140 140" fill="none" xmlns="http://www.w3.org/2000/svg">
<path d="M72.1388 105.056C64.7788 105.056 58.9228 103.072 54.5708 99.104C50.2828 95.072 48.1388 89.664 48.1388 82.88H62.5388C62.5388 85.824 63.4028 88.192 65.1308 89.984C66.8588 91.712 69.1948 92.576 72.1388 92.576C75.0828 92.576 77.4188 91.744 79.1468 90.08C80.8748 88.352 81.7388 86.016 81.7388 83.072V47.36H65.8988V33.92H96.1388V83.072C96.1388 89.856 93.9948 95.232 89.7068 99.2C85.4188 103.104 79.5628 105.056 72.1388 105.056Z" fill="#428CE2"/>
<path d="M12 10V130" stroke="#428CE2" stroke-width="15" stroke-linecap="round"/>
<path d="M129 70C129 82.4932 124.668 94.5999 116.743 104.257C108.817 113.915 97.788 120.525 85.5349 122.962C73.2817 125.4 60.5626 123.513 49.5446 117.624C38.5266 111.735 29.8914 102.207 25.1105 90.6649C20.3296 79.1227 19.6986 66.2799 23.3252 54.3246C26.9518 42.3694 34.6115 32.0415 44.9992 25.1006C55.3869 18.1598 67.8599 15.0355 80.2929 16.26C92.7259 17.4846 104.35 22.9822 113.184 31.8162" stroke="#428CE2" stroke-width="15" stroke-linecap="round"/>
<path d="M129 70V130" stroke="#428CE2" stroke-width="15" stroke-linecap="round"/>
</svg>
